# xmcd
#
# Track frame offsets: 
#        150
#        38062
#        81707
#        112902
#        151424
#        189744
#        205648
#        230359
#        254709
#
# Disc length: 4120 seconds
#
# Revision: 0
# Processed by: cddbd v1.5.2PL0 Copyright (c) Steve Scherf et al.
# Submitted via: ExactAudioCopy v1.0b1
#
DISCID=76101609
DTITLE=Danny Bryant's RedEyeBand - Night Life - Live In Holland
DYEAR=2012
DGENRE=Blues Rock
TTITLE0=Tell Me
TTITLE1=Just As I Am
TTITLE2=Heartbreaker
TTITLE3=Love Of Angels
TTITLE4=Master Of Disaster
TTITLE5=One Look
TTITLE6=My Baby's A Superstar
TTITLE7=Knockin' On Heaven's Door
TTITLE8=Always With Me
EXTD=
EXTT0=
EXTT1=
EXTT2=
EXTT3=
EXTT4=
EXTT5=
EXTT6=
EXTT7=
EXTT8=
PLAYORDER=
